/* XPM */
static const char* joker_xpm[] = {
"23 23 138 2",
"  	c None",
". 	c #000000",
"+ 	c #020201",
"@ 	c #2D2D24",
"# 	c #49493B",
"$ 	c #555545",
"% 	c #535344",
"& 	c #454538",
"* 	c #25251E",
"= 	c #2C2C24",
"- 	c #4B4B3D",
"; 	c #5A5A49",
"> 	c #5B5B4A",
", 	c #4E4E3F",
"' 	c #323228",
") 	c #040403",
"! 	c #141410",
"~ 	c #83836B",
"{ 	c #CCCCA5",
"] 	c #F7F7C8",
"^ 	c #FFFFD8",
"/ 	c #FFFFD3",
"( 	c #EDEDC0",
"_ 	c #C1C19D",
": 	c #696956",
"< 	c #1F1F19",
"[ 	c #808069",
"} 	c #CACAA4",
"| 	c #FFFFDC",
"1 	c #FFFFE0",
"2 	c #FDFDCD",
"3 	c #D2D2AA",
"4 	c #8E8E72",
"5 	c #1B1B16",
"6 	c #060605",
"7 	c #99997C",
"8 	c #FFFFD4",
"9 	c #E8E8BC",
"0 	c #F9F9CA",
"a 	c #FFFFD5",
"b 	c #F8F8C9",
"c 	c #BDBD99",
"d 	c #FFFFD1",
"e 	c #E7E7BB",
"f 	c #C4C49F",
"g 	c #F4F4C6",
"h 	c #FFFFD7",
"i 	c #FFFFD9",
"j 	c #9B9B7E",
"k 	c #070706",
"l 	c #33332A",
"m 	c #FFFFD2",
"n 	c #D1D1AA",
"o 	c #49493C",
"p 	c #818169",
"q 	c #F1F1C3",
"r 	c #FFFFCF",
"s 	c #FFFFD0",
"t 	c #DCDCB3",
"u 	c #3F3F33",
"v 	c #1E1E18",
"w 	c #7B7B64",
"x 	c #EFEFC2",
"y 	c #2E2E25",
"z 	c #8D8D72",
"A 	c #A4A485",
"B 	c #292921",
"C 	c #DBDBB2",
"D 	c #B5B593",
"E 	c #303027",
"F 	c #85856C",
"G 	c #050504",
"H 	c #D9D9B0",
"I 	c #C7C7A1",
"J 	c #656552",
"K 	c #D6D6AD",
"L 	c #1C1C17",
"M 	c #636350",
"N 	c #D1D1A9",
"O 	c #090907",
"P 	c #FEFECE",
"Q 	c #E0E0B6",
"R 	c #CDCDA7",
"S 	c #F0F0C3",
"T 	c #E7E7BC",
"U 	c #D2D2AB",
"V 	c #F3F3C5",
"W 	c #181813",
"X 	c #B1B190",
"Y 	c #10100D",
"Z 	c #E1E1B7",
"` 	c #E9E9BD",
" .	c #FBFBCC",
"..	c #FDFDCE",
"+.	c #E1E1B6",
"@.	c #A5A586",
"#.	c #EAEABE",
"$.	c #BCBC99",
"%.	c #E4E4B9",
"&.	c #ECECC0",
"*.	c #C2C29D",
"=.	c #9E9E80",
"-.	c #2C2C23",
";.	c #6C6C58",
">.	c #BBBB98",
",.	c #F6F6C7",
"'.	c #828269",
").	c #6D6D59",
"!.	c #DCDCB2",
"~.	c #282821",
"{.	c #4F4F40",
"].	c #FFFFDD",
"^.	c #ACAC8C",
"/.	c #5F5F4D",
"(.	c #FFFFD6",
"_.	c #FFFFDE",
":.	c #4A4A3C",
"<.	c #010101",
"[.	c #030302",
"}.	c #9F9F81",
"|.	c #A7A787",
"1.	c #DDDDB3",
"2.	c #020202",
"3.	c #2B2B22",
"4.	c #A4A484",
"5.	c #FCFCCC",
"6.	c #D8D8AF",
"7.	c #8B8B71",
"8.	c #61614F",
"9.	c #696955",
"0.	c #FBFBCB",
"a.	c #A0A081",
"b.	c #313128",
"c.	c #87876E",
"d.	c #C9C9A3",
"e.	c #F2F2C4",
"f.	c #2F2F25",
"g.	c #11110D",
"                . . . . . . .                 ",
"            . . . . . . . . . . .             ",
"        . . . . . . . . . . . . . . .         ",
"      . . . . . . . . . . . . . . . . .       ",
"    . + @ # $ % & * . . . = - ; > , ' ) .     ",
"    ! ~ { ] ^ / ( _ : < [ } ] | 1 2 3 4 5     ",
"  6 7 8 ^ 9 } 0 / a b c 8 8 d e f g h i j k   ",
"  l m 8 n o < p q r s 8 r s t u v w x m s y   ",
") z h a A . . B C s r r r r D . . E n m h F ) ",
"G H d / I v . J x r r r r s K L . M q s m N G ",
"O 8 r r P Q R S r r P d P r P T U V r r r s 6 ",
"W ^ r r r r r r r r r X s r r r r r r r r ^ Y ",
"O 8 r r r r r r r s Z . ` s r r r r r r r s 6 ",
"G H d r r r r r r s Z . ` s r r r r r r m N G ",
") z h P P r r r P s Z . ` s P r r r P P h F ) ",
"  l m r r 2  ...r s +.. ` s P r P 2 r s s y   ",
"  k @.i s #.$.` s s %.. &.s s ( *.` s i =.k   ",
"    -.Q ^ V ;.>./ r ,.'.0 r / >.).V ^ !.~.    ",
"    + {.&.].^./.Z (.s 8 s (.Z /.^._.` :.<.    ",
"      [., Q ^ }.- |.P i P |.- }.^ 1.:.2.      ",
"        + 3.4.5.6.7.8.9.8.7.H 0.a.~.<.        ",
"            k b.c.d.e.0.S I F f.k             ",
"                ) G 6 g.6 G )                 "};
