/* XPM */
static const char * hand_xpm[] = {
"35 40 5 1",
" 	c #000000",
".	c #FFFF00",
"+	c #00AE00",
"@	c #FFFFFF",
"#	c #333333",
"+++++++++++++++++++++++++++++++++++",
"+++++++++++++++++++++++++++++++++++",
"+++++++++++++++++++++++++++++++++++",
"+++                            ++++",
"+++ ... ...... ... ........ .. ++++",
"+++ ... ...... ... ........ .. ++++",
"+++ ... ...... ... ........ .. ++++",
"+++ ... ...... ... ........ .. ++++",
"+++ ... ...... ... ........ .. ++++",
"+++ ... ...... ... ........ .. ++++",
"+++ ... ......  .. ........ .. ++++",
"+++ ... ..... @@   ........ .. ++++",
"+++ ... ..... @@   ........ .. ++++",
"+++ ... ..... @@   ........ .. ++++",
"+++ ... ..... @@   ........ .. ++++",
"+++ ... ..... @@   ........ .. ++++",
"+++ ... ..... @@    ....... .. ++++",
"+++           @@  @@           ++++",
"+++++++++++++ @@  @@ @@   +++++++++",
"+++++++++++++ @@  @@ @@   +++++++++",
"+++++++++++++ @@  @@ @@      ++++++",
"++++++++   ++ @@  @@ @@  @@@ ++++++",
"++++++++ ##++ @@ #@@#@@  @@@ ++++++",
"++++++++ @@   @@@@@@@@@  @@@ ++++++",
"++++++++ @@@@ @@@@@@@@@@@@@@ ++++++",
"+++++++++ @@@ @@@@@@@@@@@@@@ ++++++",
"++++++++++ @@ @@@@@@@@@@@@@@ ++++++",
"++++++++++ @@ @@@@@@@@@@@@@@ ++++++",
"++++++++++ @@@@@@@@@@@@@@@@@ ++++++",
"+++++++++++  @@@@@@@@@@@@@@@ ++++++",
"+++++++++++  @@@@@@@@@@@@@@@ ++++++",
"+++++++++++  @@@@@@@@@@@@@  +++++++",
"+++++++++++  @@@@@@@@@@@@@  +++++++",
"+++++++++++++ @@@@@@@@@@@@ #+++++++",
"+++++++++++++ @@@@@@@@@@@@ #+++++++",
"++++++++++++++  @@@@@@@@@ +++++++++",
"++++++++++++++  @@@@@@@@@ +++++++++",
"+++++++++++++++          ++++++++++",
"+++++++++++++++++++++++++++++++++++",
"+++++++++++++++++++++++++++++++++++"};
