/* XPM */
static const char * appicon_xpm[] = {
"32 32 5 1",
" 	c None",
".	c #008000",
"+	c #000000",
"@	c #FFFF00",
"#	c #0000FF",
"................................",
"................................",
"................................",
"................................",
".+++++++++++++++++++++++++++++..",
".+@@@@@@@@+@@@@@@@@+@@@@@@@@@+..",
".+@@@@@@@@+@@@@@@@@+@@@@@@@@@+..",
".+@@@@@#@@+@@@##@@@+@@####@@@+..",
".+@@@@##@@+@@#@@#@@+@@@@@@#@@+..",
".+@@@#@#@@+@@@@@#@@+@@@@@@#@@+..",
".+@@#@@#@@+@@@@@#@@+@@@@@@#@@+..",
".+@@@@@#@@+@@@@#@@@+@@@###@@@+..",
".+@@@@@#@@+@@@@#@@@+@@@@@@#@@+..",
".+@@@@@#@@+@@@#@@@@+@@@@@@#@@+..",
".+@@@@@#@@+@@#@@@@@+@@@@@@#@@+..",
".+@@@@@#@@+@@####@@+@@####@@@+..",
".+@@@@@@@@+@@@@@@@@+@@@@@@@@@+..",
".+@@@@@@@@+@@@@@@@@+@@@@@@@@@+..",
".+++++++++++++++++++++++++++++..",
"................................",
"................................",
"................................",
"...+++++++++++..................",
"...+@@@@@@@@@+..................",
"...+@@@@@@@@@+..................",
"...+@@#@@@@@@+..................",
"...+@@#@@@@@@+..................",
"...+@@#@@#@@@+..................",
"...+@@#####@@+..................",
"...+@@@@@#@@@+..................",
"...+@@@@@#@@@+..................",
"...+@@@@@#@@@+.................."};
